<?xml version="1.0" encoding="utf-8"?>
<!-- Generator: Adobe Illustrator 15.0.0, SVG Export Plug-In . SVG Version: 6.00 Build 0)  -->
<!DOCTYPE svg PUBLIC "-//W3C//DTD SVG 1.1//EN" "http://www.w3.org/Graphics/SVG/1.1/DTD/svg11.dtd">
<svg version="1.1" id="Layer_1" xmlns="http://www.w3.org/2000/svg" xmlns:xlink="http://www.w3.org/1999/xlink" x="0px" y="0px"
	 width="216px" height="216px" viewBox="0 0 216 216" enable-background="new 0 0 216 216" xml:space="preserve">
<g>
	<path fill="#BF0D25" d="M61.995,163.181l39.524-74.224l-14.626,79.373C86.892,168.329,75.036,167.33,61.995,163.181z"/>
	<path fill="#444749" d="M17.972,74.294c0,0,30.445-35.333,107.386-28.391c71.204,6.424,86.832,40.976,88.098,54.8
		c4.448,48.549-104.036,34.321-104.036,34.321s54.402-3.924,54.402-39.714c0-30.591-23.726-42.538-61.515-42.538
		C64.513,52.771,40.346,59.357,17.972,74.294z"/>
	<path fill="#BF0D25" d="M108.127,169.502l1.735-22.918c0,0,56.971,11.953,98.512-19.144
		C208.374,127.44,177.037,169.45,108.127,169.502z"/>
	<path fill="#444749" d="M74.295,63.442c0,0-72.323,8.067-72.323,47.163c0,39.09,52.51,50.482,52.51,50.482
		s-32.131-15.269-26.351-54.394C33.911,67.567,74.295,63.442,74.295,63.442z"/>
	<circle fill="#BF0D25" cx="101.518" cy="88.957" r="5.955"/>
</g>
</svg>
