<?xml version="1.0" encoding="utf-8"?>
<!-- Generator: Adobe Illustrator 15.0.0, SVG Export Plug-In . SVG Version: 6.00 Build 0)  -->
<!DOCTYPE svg PUBLIC "-//W3C//DTD SVG 1.1//EN" "http://www.w3.org/Graphics/SVG/1.1/DTD/svg11.dtd">
<svg version="1.1" id="Layer_1" xmlns="http://www.w3.org/2000/svg" xmlns:xlink="http://www.w3.org/1999/xlink" x="0px" y="0px"
	 width="473.777px" height="135.662px" viewBox="163.589 171.266 473.777 135.662"
	 enable-background="new 163.589 171.266 473.777 135.662" xml:space="preserve">
<g>
	<g>
		<path fill="#BF0D25" d="M229.476,294.221l39.032-73.299l-14.444,78.384C254.063,299.306,242.355,298.319,229.476,294.221z"/>
		<path fill="#5B6666" d="M186.002,206.441c0,0,30.066-34.893,106.049-28.037c70.316,6.344,85.749,40.465,87,54.117
			c4.394,47.944-102.741,33.894-102.741,33.894s53.725-3.875,53.725-39.22c0-30.21-23.429-42.008-60.749-42.008
			C231.963,185.188,208.097,191.691,186.002,206.441z"/>
		<path fill="#BF0D25" d="M275.034,300.464l1.714-22.633c0,0,56.261,11.804,97.284-18.905
			C374.032,258.926,343.086,300.413,275.034,300.464z"/>
		<path fill="#5B6666" d="M241.623,195.725c0,0-71.422,7.967-71.422,46.574c0,38.605,51.856,49.854,51.856,49.854
			s-31.731-15.077-26.023-53.716C201.742,199.799,241.623,195.725,241.623,195.725z"/>
		<circle fill="#BF0D25" cx="268.507" cy="220.922" r="5.881"/>
	</g>
	<g>
		<g>
			<path fill="#BF0D25" d="M541.138,200.396L518.593,238.1l22.545,38.092h-23.934l-9.162-17.713
				c-0.961-1.814-1.924-4.479-2.885-7.996h-0.445c-0.557,2.998-1.445,5.665-2.664,7.996l-9.273,17.713h-24.211l22.545-38.092
				l-22.545-37.703h24.211l9.326,18.157c1.225,2.371,2.24,5.331,3.057,8.886h0.441c0.854-3.85,1.908-6.978,3.166-9.384l9.33-17.659
				L541.138,200.396L541.138,200.396z"/>
			<path fill="#5B6666" d="M548.13,200.396h20.211v75.795H548.13V200.396z"/>
			<path fill="#5B6666" d="M628.482,205.34v21.599c-3.482-3.552-6.795-5.92-9.939-7.105c-3.926-1.481-7.812-2.222-11.662-2.222
				c-6.627,0-9.938,1.926-9.938,5.775c0,2.59,1.941,4.404,5.83,5.441c6.848,1.813,11.92,3.386,15.215,4.718
				c8.92,3.629,13.381,10.255,13.381,19.879c0,4.739-1.25,9.072-3.748,12.994c-2.498,3.924-5.875,6.85-10.133,8.772
				c-4.258,1.924-8.756,2.889-13.492,2.889c-8.738,0-16.807-2.462-24.211-7.386v-19.713c3.59,3.591,6.979,6.072,10.162,7.441
				c4.145,1.776,8.385,2.664,12.715,2.664c6.404,0,9.605-1.998,9.605-5.995c0-2.296-1.463-4.127-4.385-5.496
				c-0.707-0.336-3.148-1.073-7.332-2.222c-8.809-2.406-14.824-5.35-18.047-8.829c-3.699-3.997-5.551-8.995-5.551-14.992
				c0-8.107,3.107-14.528,9.326-19.269c5.035-3.85,11.494-5.774,19.381-5.774C613.656,198.51,621.263,200.786,628.482,205.34z"/>
			<polygon fill="#5B6666" points="392.325,276.191 412.287,276.191 429.115,213.385 445.914,276.191 466.505,276.191
				444.544,200.119 414.396,200.119 			"/>
		</g>
	</g>
</g>
</svg>
