<?xml version="1.0" encoding="utf-8"?>
<!-- Generator: Adobe Illustrator 15.0.0, SVG Export Plug-In . SVG Version: 6.00 Build 0)  -->
<!DOCTYPE svg PUBLIC "-//W3C//DTD SVG 1.1//EN" "http://www.w3.org/Graphics/SVG/1.1/DTD/svg11.dtd">
<svg version="1.1" id="Layer_1" xmlns="http://www.w3.org/2000/svg" xmlns:xlink="http://www.w3.org/1999/xlink" x="0px" y="0px"
	 width="242.5px" height="82.5px" viewBox="0 0 242.5 82.5" enable-background="new 0 0 242.5 82.5" xml:space="preserve">
<g>
	<path fill="#BF0D25" d="M150.432,3.176l-22.545,37.705l22.545,38.092h-23.934l-9.163-17.713c-0.961-1.814-1.924-4.479-2.885-7.996
		h-0.445c-0.557,2.998-1.445,5.664-2.664,7.996l-9.273,17.713H77.857l22.545-38.092L77.857,3.177h24.211l9.326,18.157
		c1.225,2.371,2.24,5.331,3.057,8.886h0.441c0.854-3.85,1.908-6.978,3.166-9.384l9.331-17.659L150.432,3.176L150.432,3.176z"/>
	<path fill="#444749" d="M157.424,3.176h20.211v75.794h-20.211V3.176z"/>
	<path fill="#444749" d="M237.775,8.12v21.599c-3.482-3.552-6.795-5.92-9.939-7.105c-3.926-1.481-7.812-2.222-11.662-2.222
		c-6.627,0-9.938,1.926-9.938,5.775c0,2.59,1.941,4.404,5.83,5.441c6.848,1.813,11.92,3.386,15.215,4.718
		c8.92,3.629,13.381,10.256,13.381,19.879c0,4.74-1.25,9.072-3.748,12.994c-2.498,3.924-5.875,6.85-10.133,8.771
		c-4.258,1.926-8.756,2.891-13.492,2.891c-8.738,0-16.807-2.463-24.211-7.387V53.762c3.59,3.59,6.979,6.072,10.162,7.441
		c4.145,1.775,8.385,2.664,12.715,2.664c6.404,0,9.605-1.998,9.605-5.996c0-2.295-1.463-4.127-4.385-5.496
		c-0.707-0.336-3.148-1.072-7.332-2.221c-8.809-2.406-14.824-5.352-18.047-8.83c-3.699-3.997-5.551-8.995-5.551-14.992
		c0-8.107,3.107-14.528,9.326-19.269c5.035-3.85,11.494-5.774,19.381-5.774C222.949,1.29,230.557,3.566,237.775,8.12z"/>
	<polygon fill="#444749" points="1.618,78.971 21.58,78.971 38.408,16.165 55.207,78.971 75.798,78.971 53.837,2.899 23.689,2.899
		"/>
</g>
</svg>
