<?xml version="1.0" encoding="utf-8"?>
<!-- Generator: Adobe Illustrator 15.0.0, SVG Export Plug-In . SVG Version: 6.00 Build 0)  -->
<!DOCTYPE svg PUBLIC "-//W3C//DTD SVG 1.1//EN" "http://www.w3.org/Graphics/SVG/1.1/DTD/svg11.dtd">
<svg version="1.1" id="Layer_1" xmlns="http://www.w3.org/2000/svg" xmlns:xlink="http://www.w3.org/1999/xlink" x="0px" y="0px"
	 width="216px" height="129px" viewBox="0 0 216 129" enable-background="new 0 0 216 129" xml:space="preserve">
<g>
	<path fill="#BF0D25" d="M62.372,120.272l39.504-74.188l-14.619,79.333C87.255,125.418,75.406,124.42,62.372,120.272z"/>
	<path fill="#444749" d="M18.371,31.43c0,0,30.431-35.316,107.333-28.377c71.168,6.421,86.787,40.955,88.053,54.772
		c4.447,48.524-103.984,34.304-103.984,34.304s54.375-3.922,54.375-39.694c0-30.576-23.713-42.516-61.483-42.516
		C64.888,9.919,40.734,16.501,18.371,31.43z"/>
	<path fill="#BF0D25" d="M108.481,126.59l1.734-22.907c0,0,56.941,11.948,98.461-19.133
		C208.676,84.55,177.355,126.538,108.481,126.59z"/>
	<path fill="#444749" d="M74.665,20.583c0,0-72.286,8.063-72.286,47.139c0,39.071,52.483,50.457,52.483,50.457
		s-32.115-15.261-26.337-54.366C34.302,24.706,74.665,20.583,74.665,20.583z"/>
	<circle fill="#BF0D25" cx="101.875" cy="46.085" r="5.952"/>
</g>
<rect x="0.134" y="-0.13" fill="none" width="216.001" height="129"/>
</svg>
