<?xml version="1.0" encoding="UTF-8"?>
<!DOCTYPE svg PUBLIC "-//W3C//DTD SVG 1.1//EN" "http://www.w3.org/Graphics/SVG/1.1/DTD/svg11.dtd">
<svg version="1.1" xmlns="http://www.w3.org/2000/svg" xmlns:xlink="http://www.w3.org/1999/xlink" x="0" y="0" width="220" height="135" viewBox="0, 0, 220, 135">
  <g id="Layer_1">
    <g>
      <path d="M64.784,122.733 L103.816,49.434 L89.372,127.818 C89.371,127.818 77.663,126.831 64.784,122.733 z" fill="#BF0D25"/>
      <path d="M21.31,34.953 C21.31,34.953 51.376,0.06 127.359,6.916 C197.675,13.26 213.108,47.381 214.359,61.033 C218.753,108.977 111.618,94.927 111.618,94.927 C111.618,94.927 165.343,91.052 165.343,55.707 C165.343,25.497 141.914,13.699 104.594,13.699 C67.271,13.7 43.405,20.203 21.31,34.953 z" fill="#5B6666"/>
      <path d="M110.342,128.976 L112.056,106.343 C112.056,106.343 168.317,118.147 209.34,87.438 C209.34,87.438 178.394,128.925 110.342,128.976 z" fill="#BF0D25"/>
      <path d="M76.931,24.237 C76.931,24.237 5.509,32.204 5.509,70.811 C5.509,109.416 57.365,120.665 57.365,120.665 C57.365,120.665 25.634,105.588 31.342,66.949 C37.05,28.311 76.931,24.237 76.931,24.237 z" fill="#5B6666"/>
      <path d="M109.696,49.434 C109.696,52.682 107.063,55.315 103.815,55.315 C100.567,55.315 97.934,52.682 97.934,49.434 C97.934,46.186 100.567,43.553 103.815,43.553 C107.063,43.553 109.696,46.186 109.696,49.434 z" fill="#BF0D25"/>
    </g>
  </g>
</svg>
